<?xml version="1.0" encoding="UTF-8" standalone="no"?>
<svg
   width="523.04835"
   height="492.57438"
   viewBox="0 0 523.04835 492.57438"
   version="1.1"
   id="svg64"
   sodipodi:docname="img1.svg"
   inkscape:version="1.2.2 (b0a8486541, 2022-12-01)"
   xmlns:inkscape="http://www.inkscape.org/namespaces/inkscape"
   xmlns:sodipodi="http://sodipodi.sourceforge.net/DTD/sodipodi-0.dtd"
   xmlns="http://www.w3.org/2000/svg"
   xmlns:svg="http://www.w3.org/2000/svg">
  <defs
     id="defs68" />
  <sodipodi:namedview
     id="namedview66"
     pagecolor="#ffffff"
     bordercolor="#000000"
     borderopacity="0.25"
     inkscape:showpageshadow="2"
     inkscape:pageopacity="0.0"
     inkscape:pagecheckerboard="0"
     inkscape:deskcolor="#d1d1d1"
     showgrid="false"
     inkscape:zoom="0.96635154"
     inkscape:cx="258.18762"
     inkscape:cy="251.46129"
     inkscape:window-width="1366"
     inkscape:window-height="699"
     inkscape:window-x="0"
     inkscape:window-y="0"
     inkscape:window-maximized="1"
     inkscape:current-layer="svg64" />
  <path
     d="m0,485.4387c0,.34284.27531.61812.61815.61812h521.81208c.34281,0,.61812-.27528.61812-.61812,0-.34281-.27531-.61812-.61812-.61812H.61815c-.34284,0-.61815.27531-.61815.61812Z"
     fill="#3f3d56"
     id="path35" />
  <g
     id="g5"
     transform="translate(-12.405022)">
    <path
       id="uuid-2dbd2d67-52d2-45fe-b410-d6387c9b42a0-2368"
       d="m 246.34712,214.19614 c -2.63932,-5.83053 -1.64618,-11.93478 2.21779,-13.63395 3.86397,-1.69918 9.13465,1.65001 11.7741,7.48298 1.08763,2.3154 1.58189,4.8603 1.44142,7.4218 l 10.85807,24.84711 -12.24619,4.91569 -9.40397,-25.01674 c -2.02821,-1.60834 -3.6197,-3.67154 -4.64121,-6.01688 z"
       fill="#ffafaf" />
    <path
       d="m 321.38706,224.74626 2e-5,2e-5 c 6.61976,6.24211 6.20514,16.89206 -0.87988,22.60062 l -34.69564,27.955 c -3.78661,3.05095 -9.40634,1.97299 -11.79527,-2.26258 -9.11786,-14.76137 -10.83666,-15.57092 -16.13599,-30.69972 l 14.94432,-5.22741 8.42612,10.55088 18.39678,-21.70243 c 5.55997,-6.55902 15.48367,-7.11336 21.73955,-1.21438 z"
       fill="#00b0ff"
       id="path3" />
  </g>
  <rect
     x="176"
     y="-175.02415"
     width="11"
     height="109"
     transform="rotate(90)"
     fill="#dfdfdf"
     id="rect7"
     style="fill:#cccccc" />
  <rect
     x="176.00002"
     y="-451.02417"
     width="11"
     height="109"
     transform="rotate(90)"
     fill="#dfdfdf"
     id="rect9"
     style="fill:#cccccc" />
  <g
     id="g29"
     transform="translate(-12.405022)">
    <rect
       x="107.08952"
       y="138.00769"
       width="44.80769"
       height="94.99231"
       rx="13.08619"
       ry="13.08619"
       fill="#3f3d56"
       id="rect11" />
    <rect
       x="401.02798"
       y="138.00769"
       width="44.80769"
       height="94.99231"
       rx="13.08619"
       ry="13.08619"
       fill="#3f3d56"
       id="rect13" />
    <path
       d="M 420.93787,209.7 H 136.33792 c -9.89445,0 -18.36087,-7.06596 -20.13086,-16.80026 L 105.32325,133.03859 C 100.59,107.0055 110.39737,80.48232 130.92293,63.79233 l 21.46109,-46.1738 C 157.35859,6.91544 168.1993,1e-5 180.00179,1e-5 h 160.31615 c 8.52265,0 16.71099,3.60562 22.46598,9.8927 l 39.43471,43.08627 c 28.85064,19.44146 45.21814,53.06561 42.72177,87.76794 l -3.59446,49.96058 c -0.76619,10.6497 -9.73036,18.99251 -20.40807,18.99251 z"
       fill="#dfdfdf"
       id="path15"
       style="fill:#af0000;fill-opacity:1" />
    <path
       d="M 372.36681,59.59423 H 157.34808 c -3.73427,0 -7.18017,-1.86845 -9.21774,-4.99711 -2.03757,-3.12954 -2.3524,-7.03708 -0.84189,-10.45192 l 11.33341,-25.62352 c 1.72492,-3.89967 5.59374,-6.46999 9.85594,-6.54787 l 183.29715,0.22316 c 3.4901,-0.02275 6.82289,1.54814 8.939,4.31274 l 20.38816,25.40036 c 2.56222,3.34832 2.99389,7.77571 1.12676,11.55636 -1.86713,3.77977 -5.64603,6.1278 -9.86207,6.1278 z"
       fill="#ffffff"
       id="path17" />
    <circle
       cx="404.61261"
       cy="108.43462"
       r="18.819229"
       fill="#ffffff"
       id="circle19" />
    <circle
       cx="157.27414"
       cy="108.43462"
       r="18.819229"
       fill="#ffffff"
       id="circle21" />
    <path
       d="M 386.24145,178.78269 H 181.02222 v -0.44808 c 0,-10.62432 8.6432,-19.26731 19.26731,-19.26731 h 166.68462 c 10.62411,0 19.26731,8.64298 19.26731,19.26731 v 0.44808 z"
       fill="#3f3d56"
       id="path23" />
    <path
       d="m 133.93913,67.73925 c -1.11057,0 -2.22332,-0.35356 -3.15754,-1.06768 l -7.51382,-5.74449 c -0.74607,-0.5706 -1.67438,-0.88478 -2.61407,-0.88478 h -16.40885 c -1.87742,0 -3.55989,-0.96967 -4.50046,-2.59482 -0.94057,-1.62428 -0.94407,-3.56624 -0.0094,-5.19402 l 4.00578,-6.97845 c 0.80011,-1.39411 2.22901,-2.35328 3.82266,-2.56594 l 20.52971,-2.73747 c 2.55872,-0.33956 4.94088,1.20683 5.67316,3.67826 l 5.15967,17.41374 c 0.56819,1.91745 -0.0276,4.01781 -1.51795,5.35242 -0.98214,0.87865 -2.22398,1.32323 -3.46888,1.32323 z"
       fill="#dfdfdf"
       id="path25"
       style="fill:#af0000;fill-opacity:1" />
    <path
       d="m 400.16684,64.15464 c -1.2449,0 -2.48652,-0.44458 -3.46888,-1.32323 -1.49016,-1.3346 -2.08592,-3.43496 -1.51795,-5.35242 l 5.15967,-17.41374 c 0.73228,-2.47317 3.11838,-4.02482 5.67316,-3.67738 l 20.52993,2.73659 c 1.59343,0.21266 3.02233,1.17183 3.82244,2.56594 l 4.00578,6.97845 c 0.93466,1.62778 0.93116,3.56974 -0.009,5.19402 -0.94057,1.62515 -2.62304,2.59482 -4.50046,2.59482 h -16.40885 c -0.93969,0 -1.86801,0.31418 -2.61407,0.88478 l -7.51382,5.74449 c -0.934,0.71412 -2.0472,1.06768 -3.15754,1.06768 z"
       fill="#dfdfdf"
       id="path27"
       style="fill:#af0000;fill-opacity:1" />
  </g>
  <rect
     x="66.02417"
     y="34"
     width="11"
     height="451"
     fill="#dfdfdf"
     id="rect31"
     style="fill:#cccccc" />
  <rect
     x="446.02417"
     y="34"
     width="11"
     height="451"
     fill="#dfdfdf"
     id="rect33"
     style="fill:#cccccc" />
  <polygon
     points="344.54033,471.75166 359.98597,472.24991 359.3424,451.32356 344.54033,451.32356 "
     fill="#ffafaf"
     id="polygon37"
     transform="translate(-12.405022)" />
  <path
     d="m 329.07869,462.69029 c -0.20874,0 -0.4131,0.0268 -0.61162,0.0832 -2.78755,0.79651 -18.92315,15.20236 -23.80197,19.59851 -0.60286,0.54301 -0.92302,1.3186 -0.87874,2.12777 0.0438,0.80576 0.44472,1.53804 1.09916,2.00904 3.70036,2.66494 11.28061,6.88057 20.47822,5.17709 4.23072,-0.78386 8.50036,-1.27676 12.26737,-1.71126 8.06439,-0.93129 14.43406,-1.6665 14.43406,-4.5212 0,-4.84379 -1.33223,-17.6099 -3.00408,-18.1461 -0.15181,-0.0462 -0.32746,0.071 -0.52987,0.35422 -2.55789,3.58066 -11.34387,1.67526 -11.71658,1.59303 l -0.0978,-0.0219 -0.0555,-0.0832 c -0.0457,-0.0686 -4.34749,-6.4592 -7.58269,-6.4592 z"
     fill="#2f2e41"
     id="path39" />
  <polygon
     points="315.64204,471.75166 331.08768,472.24991 330.44411,451.32356 315.64204,451.32356 "
     fill="#ffafaf"
     id="polygon41"
     transform="translate(-12.405022)" />
  <polygon
     points="301.19289,311.3163 299.69815,381.56905 313.64905,458.29901 331.83505,459.04638 332.33329,385.80415 355.75088,319.03912 351.01754,303.34436 309.41395,305.08822 "
     fill="#2f2e41"
     id="polygon43"
     transform="translate(-12.405022)" />
  <polygon
     points="361.48071,458.29901 340.80348,456.55515 327.1017,358.15147 347.77893,317.04613 355.75088,319.03912 "
     fill="#2f2e41"
     id="polygon45"
     transform="translate(-12.405022)" />
  <path
     d="m 292.20942,492.57438 c -7.08785,0 -12.84688,-3.13302 -15.92248,-5.24521 -0.92935,-0.63838 -1.50447,-1.65141 -1.57794,-2.77977 -0.0744,-1.13857 0.36931,-2.22849 1.2174,-2.99143 7.63378,-6.86743 20.83926,-18.50178 23.50517,-19.26326 3.45513,-0.99017 8.09213,5.61744 8.68866,6.49375 0.96535,0.19755 8.87502,1.70883 11.10691,-1.41689 0.42575,-0.59556 0.82522,-0.62232 1.08748,-0.53863 2.38516,0.7644 3.35051,16.11905 3.35051,18.6205 0,3.29894 -6.23927,4.01906 -14.8749,5.01604 -3.75923,0.43402 -8.02011,0.92594 -12.23429,1.70591 -1.49377,0.27686 -2.94617,0.39899 -4.34652,0.39899 z"
     fill="#2f2e41"
     id="path47" />
  <polygon
     points="332.17178,225.52724 310.72266,235.88631 310.98545,217.55787 326.4968,214.09426 "
     fill="#ffafaf"
     id="polygon49"
     transform="translate(-12.405022)" />
  <circle
     cx="298.3945"
     cy="203.44273"
     r="19.30022"
     fill="#ffafaf"
     id="circle51" />
  <path
     d="m 298.26386,231.42912 19.78968,-11.6939 v 0 l 2e-5,2e-5 c 14.51448,10.17899 26.60137,12.56036 26.9859,30.28418 l -2.67498,42.27794 0.15677,18.20804 c 0.0658,7.64367 -6.11231,13.87522 -13.75627,13.87522 h -28.25871 c -7.4783,0 -13.04995,-6.89947 -11.47535,-14.21012 l 5.33498,-24.76954 -5.69703,-48.27482 9.59499,-5.69703 z"
     fill="#00b0ff"
     id="path53" />
  <path
     d="m 318.2417,213.15365 -3.56833,2.55642 c 0,0 -1.05008,-11.14186 -2.49886,-11.6363 -1.44878,-0.49444 -3.40351,2.0735 -3.40351,2.0735 l -1.42752,4.18283 -4.72026,-1.96755 c 0,0 -5.4655,-2.94361 -7.39721,-3.60286 -1.93171,-0.65925 -1.63892,-6.25675 -1.63892,-6.25675 0,0 -23.18971,3.17499 -19.70561,-10.19367 0,0 1.19974,-9.83487 3.76768,-7.88014 2.56794,1.95473 2.60247,-2.88605 2.60247,-2.88605 l 5.81815,-1.24943 c 0,0 7.98375,-10.75467 23.73251,-1.60573 15.74876,9.14895 8.43942,38.46572 8.43942,38.46572 z"
     fill="#2f2e41"
     id="path55" />
  <path
     d="m 277.96308,255.87454 -5.21382,-0.79431 c -1.45582,-0.22179 -2.46559,-1.59446 -2.24379,-3.05034 l 0.63719,-4.18246 c -1.89237,1.16941 -3.28117,3.12673 -3.64246,5.49818 -0.55742,3.65884 1.50974,7.10448 4.79034,8.44632 l -4.56206,29.94508 c -0.0114,0.0751 -0.009,0.14871 -0.0111,0.22291 -3.54128,0.29432 -6.55274,2.97213 -7.11138,6.639 -0.32745,2.14937 0.24982,4.22743 1.44633,5.8486 l 0.57393,-3.76726 c 0.2218,-1.45587 1.59452,-2.46558 3.05034,-2.24379 l 5.21382,0.79431 c 1.45582,0.22179 2.46559,1.59446 2.24379,3.05034 l -0.63719,4.18246 c 1.89237,-1.16941 3.28117,-3.12673 3.64246,-5.49818 0.55864,-3.66687 -1.51879,-7.11996 -4.81178,-8.45546 0.02,-0.0715 0.0443,-0.14099 0.0557,-0.21611 l 4.56206,-29.94508 c 3.53135,-0.30405 6.53078,-2.97781 7.0882,-6.63665 0.32745,-2.14937 -0.24982,-4.22743 -1.44633,-5.8486 l -0.57393,3.76726 c -0.2218,1.45587 -1.59452,2.46558 -3.05034,2.24379 z"
     fill="#3f3d56"
     id="path57" />
  <g
     id="g62"
     transform="translate(-12.405022)">
    <path
       id="uuid-610469c6-e523-485c-9269-d5059242b223-2369"
       d="m 280.65661,281.92954 c -6.25671,-1.34713 -10.57245,-5.77685 -9.63955,-9.89355 0.9329,-4.11669 6.76051,-6.3608 13.01925,-5.01233 2.50814,0.5032 4.84777,1.61989 6.82312,3.25665 l 26.43154,6.05397 -3.33409,12.76781 -25.70284,-7.32368 c -2.49937,0.67346 -5.10454,0.72529 -7.59743,0.15112 z"
       fill="#ffafaf" />
    <path
       d="m 333.77832,227.88899 h 3e-5 c 8.95551,-1.6075 17.26925,5.06148 17.64286,14.15244 l 1.82956,44.51879 c 0.19967,4.85869 -4.00998,8.73452 -8.8357,8.13498 -17.2894,-1.45269 -16.07482,0.3181 -31.3879,-4.4225 l 1.0255,-16.2727 14.26885,-0.21626 -6.50003,-27.69813 c -1.96447,-8.37107 3.4936,-16.67749 11.95683,-18.19662 z"
       fill="#00b0ff"
       id="path60" />
  </g>
</svg>
